<svg width="1200" height="460" viewBox="0 0 1200 460" fill="none" xmlns="http://www.w3.org/2000/svg" role="img" aria-labelledby="title desc">
  <title id="title">Go2 blind rough-terrain asymmetric PPO deployment</title>
  <desc id="desc">A stylized banner showing the IsaacLab to MuJoCo to real Go2 deployment pipeline.</desc>
  <defs>
    <linearGradient id="bg" x1="0" y1="0" x2="1200" y2="460" gradientUnits="userSpaceOnUse">
      <stop offset="0" stop-color="#08130F"/>
      <stop offset="0.52" stop-color="#10251D"/>
      <stop offset="1" stop-color="#1C2D24"/>
    </linearGradient>
    <linearGradient id="terrain" x1="52" y1="360" x2="1144" y2="292" gradientUnits="userSpaceOnUse">
      <stop offset="0" stop-color="#4E6B45"/>
      <stop offset="0.46" stop-color="#8B7441"/>
      <stop offset="1" stop-color="#A65736"/>
    </linearGradient>
    <filter id="softShadow" x="-20%" y="-20%" width="140%" height="140%">
      <feDropShadow dx="0" dy="18" stdDeviation="18" flood-color="#000000" flood-opacity="0.35"/>
    </filter>
  </defs>

  <rect width="1200" height="460" rx="34" fill="url(#bg)"/>
  <path d="M0 0H1200V460H0V0Z" fill="url(#bg)"/>

  <g opacity="0.22">
    <path d="M74 103H1124" stroke="#8CE1B6" stroke-width="1"/>
    <path d="M74 157H1124" stroke="#8CE1B6" stroke-width="1"/>
    <path d="M74 211H1124" stroke="#8CE1B6" stroke-width="1"/>
    <path d="M74 265H1124" stroke="#8CE1B6" stroke-width="1"/>
    <path d="M146 66V326" stroke="#8CE1B6" stroke-width="1"/>
    <path d="M302 66V326" stroke="#8CE1B6" stroke-width="1"/>
    <path d="M458 66V326" stroke="#8CE1B6" stroke-width="1"/>
    <path d="M614 66V326" stroke="#8CE1B6" stroke-width="1"/>
    <path d="M770 66V326" stroke="#8CE1B6" stroke-width="1"/>
    <path d="M926 66V326" stroke="#8CE1B6" stroke-width="1"/>
    <path d="M1082 66V326" stroke="#8CE1B6" stroke-width="1"/>
  </g>

  <path d="M54 357C147 327 237 349 329 319C424 288 506 305 601 284C713 259 798 270 892 246C990 221 1062 220 1148 190V460H54V357Z" fill="url(#terrain)" opacity="0.96"/>
  <path d="M80 365C176 344 220 380 306 354C383 331 433 348 512 327C593 306 641 319 713 297C784 276 839 285 911 263C995 238 1051 246 1128 214" stroke="#D9F2B4" stroke-width="5" stroke-linecap="round" opacity="0.75"/>

  <g filter="url(#softShadow)">
    <rect x="82" y="70" width="572" height="172" rx="24" fill="#0E1D17" fill-opacity="0.88" stroke="#C6F6D5" stroke-opacity="0.18"/>
    <text x="114" y="124" fill="#EAF7EF" font-family="ui-sans-serif, system-ui, -apple-system, Segoe UI, sans-serif" font-size="42" font-weight="800">Blind Rough-Terrain Go2</text>
    <text x="114" y="171" fill="#9EE8C0" font-family="ui-sans-serif, system-ui, -apple-system, Segoe UI, sans-serif" font-size="30" font-weight="700">Asymmetric PPO, sim2real-first</text>
    <text x="114" y="212" fill="#D8E8DD" font-family="ui-sans-serif, system-ui, -apple-system, Segoe UI, sans-serif" font-size="22">IsaacLab training → MuJoCo FSM validation → real hardware</text>
  </g>

  <g transform="translate(748 84)" filter="url(#softShadow)">
    <rect x="0" y="0" width="334" height="210" rx="26" fill="#F2F6EC"/>
    <circle cx="167" cy="105" r="44" fill="#14251D"/>
    <path d="M154 82L198 105L154 128V82Z" fill="#9EE8C0"/>
    <text x="52" y="174" fill="#14251D" font-family="ui-sans-serif, system-ui, -apple-system, Segoe UI, sans-serif" font-size="23" font-weight="800">Watch deployment video</text>
  </g>

  <g transform="translate(120 305)">
    <rect x="0" y="0" width="182" height="54" rx="27" fill="#EAF7EF"/>
    <text x="28" y="35" fill="#13221B" font-family="ui-sans-serif, system-ui, -apple-system, Segoe UI, sans-serif" font-size="20" font-weight="800">45 obs actor</text>
  </g>
  <g transform="translate(324 305)">
    <rect x="0" y="0" width="230" height="54" rx="27" fill="#9EE8C0"/>
    <text x="28" y="35" fill="#13221B" font-family="ui-sans-serif, system-ui, -apple-system, Segoe UI, sans-serif" font-size="20" font-weight="800">100-step history</text>
  </g>
  <g transform="translate(576 305)">
    <rect x="0" y="0" width="192" height="54" rx="27" fill="#D9F2B4"/>
    <text x="28" y="35" fill="#13221B" font-family="ui-sans-serif, system-ui, -apple-system, Segoe UI, sans-serif" font-size="20" font-weight="800">50 Hz control</text>
  </g>
  <g transform="translate(790 305)">
    <rect x="0" y="0" width="246" height="54" rx="27" fill="#F6C177"/>
    <text x="28" y="35" fill="#13221B" font-family="ui-sans-serif, system-ui, -apple-system, Segoe UI, sans-serif" font-size="20" font-weight="800">Ethernet deployment</text>
  </g>
</svg>
